<svg width="58" height="58" viewBox="0 0 58 58" fill="none" xmlns="http://www.w3.org/2000/svg">
<rect width="58" height="58" rx="29" fill="#00AD56"/>
<path d="M41 31V39C41 39.2652 40.8946 39.5196 40.7071 39.7071C40.5196 39.8946 40.2652 40 40 40H18C17.7348 40 17.4804 39.8946 17.2929 39.7071C17.1054 39.5196 17 39.2652 17 39V31C17 30.7348 17.1054 30.4804 17.2929 30.2929C17.4804 30.1054 17.7348 30 18 30C18.2652 30 18.5196 30.1054 18.7071 30.2929C18.8946 30.4804 19 30.7348 19 31V38H39V31C39 30.7348 39.1054 30.4804 39.2929 30.2929C39.4804 30.1054 39.7348 30 40 30C40.2652 30 40.5196 30.1054 40.7071 30.2929C40.8946 30.4804 41 30.7348 41 31ZM28.2925 31.7075C28.3854 31.8005 28.4957 31.8742 28.6171 31.9246C28.7385 31.9749 28.8686 32.0008 29 32.0008C29.1314 32.0008 29.2615 31.9749 29.3829 31.9246C29.5043 31.8742 29.6146 31.8005 29.7075 31.7075L34.7075 26.7075C34.8004 26.6146 34.8741 26.5043 34.9244 26.3829C34.9747 26.2615 35.0006 26.1314 35.0006 26C35.0006 25.8686 34.9747 25.7385 34.9244 25.6171C34.8741 25.4957 34.8004 25.3854 34.7075 25.2925C34.6146 25.1996 34.5043 25.1259 34.3829 25.0756C34.2615 25.0253 34.1314 24.9994 34 24.9994C33.8686 24.9994 33.7385 25.0253 33.6171 25.0756C33.4957 25.1259 33.3854 25.1996 33.2925 25.2925L30 28.5863V17C30 16.7348 29.8946 16.4804 29.7071 16.2929C29.5196 16.1054 29.2652 16 29 16C28.7348 16 28.4804 16.1054 28.2929 16.2929C28.1054 16.4804 28 16.7348 28 17V28.5863L24.7075 25.2925C24.5199 25.1049 24.2654 24.9994 24 24.9994C23.7346 24.9994 23.4801 25.1049 23.2925 25.2925C23.1049 25.4801 22.9994 25.7346 22.9994 26C22.9994 26.2654 23.1049 26.5199 23.2925 26.7075L28.2925 31.7075Z" fill="white"/>
</svg>
