<svg width="59" height="58" viewBox="0 0 59 58" fill="none" xmlns="http://www.w3.org/2000/svg">
<rect x="0.333496" width="58" height="58" rx="29" fill="#00AD56"/>
<path d="M35.0003 33.0001C34.3332 32.9999 33.6729 33.1335 33.0584 33.3931C32.4439 33.6527 31.8877 34.0329 31.4228 34.5113L25.6603 30.8076C26.1136 29.6452 26.1136 28.355 25.6603 27.1926L31.4228 23.4888C32.2884 24.3755 33.4523 24.9092 34.689 24.9864C35.9257 25.0636 37.147 24.6789 38.1161 23.9068C39.0853 23.1347 39.7332 22.0302 39.9343 20.8076C40.1354 19.5849 39.8754 18.3311 39.2046 17.2893C38.5338 16.2475 37.5 15.4919 36.3038 15.1689C35.1075 14.846 33.8339 14.9787 32.73 15.5414C31.626 16.1041 30.7703 17.0567 30.3288 18.2145C29.8873 19.3722 29.8914 20.6527 30.3403 21.8076L24.5778 25.5113C23.8839 24.7989 22.9933 24.3097 22.0198 24.106C21.0464 23.9024 20.0344 23.9937 19.1131 24.3682C18.1918 24.7428 17.4031 25.3835 16.8479 26.2086C16.2927 27.0337 15.9961 28.0056 15.9961 29.0001C15.9961 29.9946 16.2927 30.9665 16.8479 31.7916C17.4031 32.6167 18.1918 33.2574 19.1131 33.632C20.0344 34.0065 21.0464 34.0978 22.0198 33.8942C22.9933 33.6905 23.8839 33.2013 24.5778 32.4888L30.3403 36.1926C29.9543 37.1883 29.8971 38.2814 30.1773 39.3118C30.4574 40.3423 31.0602 41.256 31.8972 41.9192C32.7342 42.5823 33.7615 42.9601 34.8288 42.9971C35.896 43.0341 36.9471 42.7285 37.828 42.125C38.709 41.5214 39.3736 40.6517 39.7245 39.6431C40.0754 38.6345 40.0942 37.5401 39.7781 36.5201C39.462 35.5 38.8276 34.608 37.9679 33.9746C37.1081 33.3412 36.0682 32.9997 35.0003 33.0001ZM35.0003 17.0001C35.5936 17.0001 36.1737 17.176 36.667 17.5057C37.1604 17.8353 37.5449 18.3039 37.7719 18.852C37.999 19.4002 38.0584 20.0034 37.9427 20.5854C37.8269 21.1673 37.5412 21.7019 37.1216 22.1214C36.7021 22.541 36.1675 22.8267 35.5856 22.9425C35.0036 23.0582 34.4004 22.9988 33.8523 22.7717C33.3041 22.5447 32.8355 22.1602 32.5059 21.6668C32.1762 21.1735 32.0003 20.5934 32.0003 20.0001C32.0003 19.2044 32.3164 18.4414 32.879 17.8788C33.4416 17.3162 34.2047 17.0001 35.0003 17.0001ZM21.0003 32.0001C20.407 32.0001 19.8269 31.8242 19.3336 31.4945C18.8402 31.1649 18.4557 30.6963 18.2287 30.1481C18.0016 29.6 17.9422 28.9968 18.0579 28.4148C18.1737 27.8329 18.4594 27.2983 18.879 26.8788C19.2985 26.4592 19.8331 26.1735 20.415 26.0577C20.997 25.942 21.6002 26.0014 22.1484 26.2285C22.6965 26.4555 23.1651 26.84 23.4947 27.3334C23.8244 27.8267 24.0003 28.4068 24.0003 29.0001C24.0003 29.7957 23.6842 30.5588 23.1216 31.1214C22.559 31.684 21.7959 32.0001 21.0003 32.0001ZM35.0003 41.0001C34.407 41.0001 33.8269 40.8242 33.3336 40.4945C32.8402 40.1649 32.4557 39.6963 32.2287 39.1481C32.0016 38.6 31.9422 37.9968 32.0579 37.4148C32.1737 36.8329 32.4594 36.2983 32.879 35.8788C33.2985 35.4592 33.8331 35.1735 34.415 35.0577C34.997 34.942 35.6002 35.0014 36.1484 35.2285C36.6965 35.4555 37.1651 35.84 37.4947 36.3334C37.8244 36.8267 38.0003 37.4068 38.0003 38.0001C38.0003 38.7957 37.6842 39.5588 37.1216 40.1214C36.559 40.684 35.796 41.0001 35.0003 41.0001Z" fill="white"/>
</svg>
