<svg width="58" height="58" viewBox="0 0 58 58" fill="none" xmlns="http://www.w3.org/2000/svg">
<rect width="58" height="58" rx="29" fill="#00AD56"/>
<path d="M33.666 29C33.666 29.2652 33.5607 29.5196 33.3731 29.7071C33.1856 29.8946 32.9312 30 32.666 30H24.666C24.4008 30 24.1464 29.8946 23.9589 29.7071C23.7714 29.5196 23.666 29.2652 23.666 29C23.666 28.7348 23.7714 28.4804 23.9589 28.2929C24.1464 28.1054 24.4008 28 24.666 28H32.666C32.9312 28 33.1856 28.1054 33.3731 28.2929C33.5607 28.4804 33.666 28.7348 33.666 29ZM32.666 32H24.666C24.4008 32 24.1464 32.1054 23.9589 32.2929C23.7714 32.4804 23.666 32.7348 23.666 33C23.666 33.2652 23.7714 33.5196 23.9589 33.7071C24.1464 33.8946 24.4008 34 24.666 34H32.666C32.9312 34 33.1856 33.8946 33.3731 33.7071C33.5607 33.5196 33.666 33.2652 33.666 33C33.666 32.7348 33.5607 32.4804 33.3731 32.2929C33.1856 32.1054 32.9312 32 32.666 32ZM39.666 18V38C39.666 39.0609 39.2446 40.0783 38.4944 40.8284C37.7443 41.5786 36.7269 42 35.666 42H21.666C20.6051 42 19.5877 41.5786 18.8376 40.8284C18.0874 40.0783 17.666 39.0609 17.666 38V18C17.666 17.7348 17.7714 17.4804 17.9589 17.2929C18.1464 17.1054 18.4008 17 18.666 17H21.666V16C21.666 15.7348 21.7714 15.4804 21.9589 15.2929C22.1464 15.1054 22.4008 15 22.666 15C22.9312 15 23.1856 15.1054 23.3731 15.2929C23.5607 15.4804 23.666 15.7348 23.666 16V17H27.666V16C27.666 15.7348 27.7714 15.4804 27.9589 15.2929C28.1464 15.1054 28.4008 15 28.666 15C28.9312 15 29.1856 15.1054 29.3731 15.2929C29.5607 15.4804 29.666 15.7348 29.666 16V17H33.666V16C33.666 15.7348 33.7714 15.4804 33.9589 15.2929C34.1464 15.1054 34.4008 15 34.666 15C34.9312 15 35.1856 15.1054 35.3731 15.2929C35.5607 15.4804 35.666 15.7348 35.666 16V17H38.666C38.9312 17 39.1856 17.1054 39.3731 17.2929C39.5607 17.4804 39.666 17.7348 39.666 18ZM37.666 19H35.666V20C35.666 20.2652 35.5607 20.5196 35.3731 20.7071C35.1856 20.8946 34.9312 21 34.666 21C34.4008 21 34.1464 20.8946 33.9589 20.7071C33.7714 20.5196 33.666 20.2652 33.666 20V19H29.666V20C29.666 20.2652 29.5607 20.5196 29.3731 20.7071C29.1856 20.8946 28.9312 21 28.666 21C28.4008 21 28.1464 20.8946 27.9589 20.7071C27.7714 20.5196 27.666 20.2652 27.666 20V19H23.666V20C23.666 20.2652 23.5607 20.5196 23.3731 20.7071C23.1856 20.8946 22.9312 21 22.666 21C22.4008 21 22.1464 20.8946 21.9589 20.7071C21.7714 20.5196 21.666 20.2652 21.666 20V19H19.666V38C19.666 38.5304 19.8767 39.0391 20.2518 39.4142C20.6269 39.7893 21.1356 40 21.666 40H35.666C36.1964 40 36.7052 39.7893 37.0802 39.4142C37.4553 39.0391 37.666 38.5304 37.666 38V19Z" fill="white"/>
</svg>
