<svg width="59" height="58" viewBox="0 0 59 58" fill="none" xmlns="http://www.w3.org/2000/svg">
<rect x="0.666504" width="58" height="58" rx="29" fill="#00AD56"/>
<path d="M34.333 29C34.333 29.2652 34.2277 29.5196 34.0401 29.7071C33.8526 29.8946 33.5982 30 33.333 30H25.333C25.0678 30 24.8134 29.8946 24.6259 29.7071C24.4384 29.5196 24.333 29.2652 24.333 29C24.333 28.7348 24.4384 28.4804 24.6259 28.2929C24.8134 28.1054 25.0678 28 25.333 28H33.333C33.5982 28 33.8526 28.1054 34.0401 28.2929C34.2277 28.4804 34.333 28.7348 34.333 29ZM33.333 32H25.333C25.0678 32 24.8134 32.1054 24.6259 32.2929C24.4384 32.4804 24.333 32.7348 24.333 33C24.333 33.2652 24.4384 33.5196 24.6259 33.7071C24.8134 33.8946 25.0678 34 25.333 34H33.333C33.5982 34 33.8526 33.8946 34.0401 33.7071C34.2277 33.5196 34.333 33.2652 34.333 33C34.333 32.7348 34.2277 32.4804 34.0401 32.2929C33.8526 32.1054 33.5982 32 33.333 32ZM40.333 18V38C40.333 39.0609 39.9116 40.0783 39.1614 40.8284C38.4113 41.5786 37.3939 42 36.333 42H22.333C21.2721 42 20.2547 41.5786 19.5046 40.8284C18.7544 40.0783 18.333 39.0609 18.333 38V18C18.333 17.7348 18.4384 17.4804 18.6259 17.2929C18.8134 17.1054 19.0678 17 19.333 17H22.333V16C22.333 15.7348 22.4384 15.4804 22.6259 15.2929C22.8134 15.1054 23.0678 15 23.333 15C23.5982 15 23.8526 15.1054 24.0401 15.2929C24.2277 15.4804 24.333 15.7348 24.333 16V17H28.333V16C28.333 15.7348 28.4384 15.4804 28.6259 15.2929C28.8134 15.1054 29.0678 15 29.333 15C29.5982 15 29.8526 15.1054 30.0401 15.2929C30.2277 15.4804 30.333 15.7348 30.333 16V17H34.333V16C34.333 15.7348 34.4384 15.4804 34.6259 15.2929C34.8134 15.1054 35.0678 15 35.333 15C35.5982 15 35.8526 15.1054 36.0401 15.2929C36.2277 15.4804 36.333 15.7348 36.333 16V17H39.333C39.5982 17 39.8526 17.1054 40.0401 17.2929C40.2277 17.4804 40.333 17.7348 40.333 18ZM38.333 19H36.333V20C36.333 20.2652 36.2277 20.5196 36.0401 20.7071C35.8526 20.8946 35.5982 21 35.333 21C35.0678 21 34.8134 20.8946 34.6259 20.7071C34.4384 20.5196 34.333 20.2652 34.333 20V19H30.333V20C30.333 20.2652 30.2277 20.5196 30.0401 20.7071C29.8526 20.8946 29.5982 21 29.333 21C29.0678 21 28.8134 20.8946 28.6259 20.7071C28.4384 20.5196 28.333 20.2652 28.333 20V19H24.333V20C24.333 20.2652 24.2277 20.5196 24.0401 20.7071C23.8526 20.8946 23.5982 21 23.333 21C23.0678 21 22.8134 20.8946 22.6259 20.7071C22.4384 20.5196 22.333 20.2652 22.333 20V19H20.333V38C20.333 38.5304 20.5437 39.0391 20.9188 39.4142C21.2939 39.7893 21.8026 40 22.333 40H36.333C36.8634 40 37.3721 39.7893 37.7472 39.4142C38.1223 39.0391 38.333 38.5304 38.333 38V19Z" fill="white"/>
</svg>
