<svg width="58" height="58" viewBox="0 0 58 58" fill="none" xmlns="http://www.w3.org/2000/svg">
<rect width="58" height="58" rx="29" fill="#00AD56"/>
<g clip-path="url(#clip0_121_2358)">
<path d="M36.1806 17.0207C36.724 17.1196 37.0842 17.6404 36.9852 18.1837L36.1074 23.0013L40.0004 23.0017C40.5526 23.0017 41.0002 23.4495 41.0002 24.0018C41.0002 24.5541 40.5524 25.0017 40 25.0017L35.743 25.0012L34.2858 32.9989L38 32.9987C38.5522 32.9987 39 33.4464 39 33.9988C39 34.551 38.5524 34.9988 38 34.9988L33.9214 34.999L32.9782 40.1754C32.8792 40.7188 32.3585 41.079 31.8152 40.98C31.2718 40.881 30.9116 40.3604 31.0106 39.817L31.8885 34.999L23.924 34.9994L22.9816 40.1788C22.8827 40.722 22.3621 41.0824 21.8187 40.9836C21.2754 40.8846 20.915 40.364 21.0139 39.8208L21.8911 34.9994L18 34.9996C17.4478 34.9996 17 34.552 17 33.9996C17 33.4474 17.4477 32.9996 18 32.9996L22.255 32.9994L23.7105 25L19.9918 24.9996C19.4396 24.9995 18.9919 24.5518 18.9919 23.9995C18.992 23.4472 19.4398 22.9995 19.992 22.9996L24.0744 23L25.0162 17.8241C25.1151 17.2807 25.6357 16.9204 26.1791 17.0193C26.7224 17.1181 27.0828 17.6388 26.9839 18.1821L26.1072 23.0002L34.0746 23.0011L35.0176 17.8252C35.1166 17.2819 35.6372 16.9217 36.1806 17.0207ZM25.7433 25.0002L24.2879 32.9993L32.2529 32.999L33.7102 25.001L25.7433 25.0002Z" fill="white"/>
</g>
<defs>
<clipPath id="clip0_121_2358">
<rect width="32" height="32" fill="white" transform="translate(13 13)"/>
</clipPath>
</defs>
</svg>
