<svg width="58" height="58" viewBox="0 0 58 58" fill="none" xmlns="http://www.w3.org/2000/svg">
<rect width="58" height="58" rx="29" fill="#00AD56"/>
<path d="M41 31.0008V39.0008C41 39.266 40.8946 39.5204 40.7071 39.7079C40.5196 39.8954 40.2652 40.0008 40 40.0008H18C17.7348 40.0008 17.4804 39.8954 17.2929 39.7079C17.1054 39.5204 17 39.266 17 39.0008V31.0008C17 30.7356 17.1054 30.4812 17.2929 30.2937C17.4804 30.1061 17.7348 30.0008 18 30.0008C18.2652 30.0008 18.5196 30.1061 18.7071 30.2937C18.8946 30.4812 19 30.7356 19 31.0008V38.0008H39V31.0008C39 30.7356 39.1054 30.4812 39.2929 30.2937C39.4804 30.1061 39.7348 30.0008 40 30.0008C40.2652 30.0008 40.5196 30.1061 40.7071 30.2937C40.8946 30.4812 41 30.7356 41 31.0008ZM24.7075 22.7083L28 19.4145V31.0008C28 31.266 28.1054 31.5204 28.2929 31.7079C28.4804 31.8954 28.7348 32.0008 29 32.0008C29.2652 32.0008 29.5196 31.8954 29.7071 31.7079C29.8946 31.5204 30 31.266 30 31.0008V19.4145L33.2925 22.7083C33.4801 22.8959 33.7346 23.0013 34 23.0013C34.2654 23.0013 34.5199 22.8959 34.7075 22.7083C34.8951 22.5206 35.0006 22.2662 35.0006 22.0008C35.0006 21.7354 34.8951 21.4809 34.7075 21.2933L29.7075 16.2933C29.6146 16.2003 29.5043 16.1266 29.3829 16.0762C29.2615 16.0259 29.1314 16 29 16C28.8686 16 28.7385 16.0259 28.6171 16.0762C28.4957 16.1266 28.3854 16.2003 28.2925 16.2933L23.2925 21.2933C23.1049 21.4809 22.9994 21.7354 22.9994 22.0008C22.9994 22.2662 23.1049 22.5206 23.2925 22.7083C23.4801 22.8959 23.7346 23.0013 24 23.0013C24.2654 23.0013 24.5199 22.8959 24.7075 22.7083Z" fill="white"/>
</svg>
