<svg width="58" height="58" viewBox="0 0 58 58" fill="none" xmlns="http://www.w3.org/2000/svg">
<rect width="58" height="58" rx="29" fill="#00AD56"/>
<g clip-path="url(#clip0_275_43394)">
<path d="M44.5935 27.625L42.8435 23.25C42.6951 22.8798 42.4389 22.5628 42.1081 22.3399C41.7774 22.117 41.3873 21.9986 40.9885 22H36.666V21C36.666 20.7348 36.5607 20.4804 36.3731 20.2929C36.1856 20.1054 35.9312 20 35.666 20H16.666C16.1356 20 15.6269 20.2107 15.2518 20.5858C14.8767 20.9609 14.666 21.4696 14.666 22V36C14.666 36.5304 14.8767 37.0391 15.2518 37.4142C15.6269 37.7893 16.1356 38 16.666 38H18.791C19.0113 38.8604 19.5117 39.623 20.2133 40.1676C20.9149 40.7122 21.7778 41.0078 22.666 41.0078C23.5542 41.0078 24.4171 40.7122 25.1187 40.1676C25.8203 39.623 26.3207 38.8604 26.541 38H32.791C33.0113 38.8604 33.5117 39.623 34.2133 40.1676C34.9149 40.7122 35.7778 41.0078 36.666 41.0078C37.5542 41.0078 38.4171 40.7122 39.1187 40.1676C39.8203 39.623 40.3207 38.8604 40.541 38H42.666C43.1965 38 43.7052 37.7893 44.0802 37.4142C44.4553 37.0391 44.666 36.5304 44.666 36V28C44.6664 27.8715 44.6417 27.7441 44.5935 27.625ZM36.666 24H40.9885L42.1885 27H36.666V24ZM16.666 22H34.666V30H16.666V22ZM22.666 39C22.2705 39 21.8838 38.8827 21.5549 38.6629C21.226 38.4432 20.9696 38.1308 20.8183 37.7654C20.6669 37.3999 20.6273 36.9978 20.7044 36.6098C20.7816 36.2219 20.9721 35.8655 21.2518 35.5858C21.5315 35.3061 21.8879 35.1156 22.2758 35.0384C22.6638 34.9613 23.0659 35.0009 23.4314 35.1522C23.7968 35.3036 24.1092 35.56 24.329 35.8889C24.5487 36.2178 24.666 36.6044 24.666 37C24.666 37.5304 24.4553 38.0391 24.0802 38.4142C23.7052 38.7893 23.1964 39 22.666 39ZM32.791 36H26.541C26.3207 35.1396 25.8203 34.377 25.1187 33.8324C24.4171 33.2878 23.5542 32.9922 22.666 32.9922C21.7778 32.9922 20.9149 33.2878 20.2133 33.8324C19.5117 34.377 19.0113 35.1396 18.791 36H16.666V32H34.666V33.5387C34.2062 33.8045 33.8037 34.159 33.4818 34.5814C33.16 35.0039 32.9252 35.4861 32.791 36ZM36.666 39C36.2705 39 35.8838 38.8827 35.5549 38.6629C35.226 38.4432 34.9696 38.1308 34.8183 37.7654C34.6669 37.3999 34.6273 36.9978 34.7044 36.6098C34.7816 36.2219 34.9721 35.8655 35.2518 35.5858C35.5315 35.3061 35.8879 35.1156 36.2758 35.0384C36.6638 34.9613 37.0659 35.0009 37.4314 35.1522C37.7968 35.3036 38.1092 35.56 38.329 35.8889C38.5487 36.2178 38.666 36.6044 38.666 37C38.666 37.5304 38.4553 38.0391 38.0802 38.4142C37.7052 38.7893 37.1965 39 36.666 39ZM42.666 36H40.541C40.3181 35.1417 39.8167 34.3815 39.1155 33.8387C38.4143 33.2958 37.5528 33.0008 36.666 33V29H42.666V36Z" fill="white"/>
</g>
<defs>
<clipPath id="clip0_275_43394">
<rect width="32" height="32" fill="white" transform="translate(12.666 13)"/>
</clipPath>
</defs>
</svg>
